<?xml version="1.0" standalone="no"?>
<!DOCTYPE svg PUBLIC "-//W3C//DTD SVG 20010904//EN"
 "http://www.w3.org/TR/2001/REC-SVG-20010904/DTD/svg10.dtd">
<svg version="1.0" xmlns="http://www.w3.org/2000/svg"
 width="300.000000pt" height="300.000000pt" viewBox="0 0 300.000000 300.000000"
 preserveAspectRatio="xMidYMid meet">
<metadata>
Created by potrace 1.14, written by Peter Selinger 2001-2017
</metadata>
<g transform="translate(0.000000,300.000000) scale(0.100000,-0.100000)"
fill="#000000" stroke="none">
<path d="M760 2850 c-14 -11 -31 -20 -37 -20 -7 0 -13 -3 -14 -7 0 -5 -2 -16
-4 -25 -2 -10 0 -18 5 -18 4 0 4 -16 0 -34 -4 -19 -6 -36 -4 -38 1 -2 6 -30 9
-63 13 -116 14 -125 22 -138 4 -6 10 -32 14 -57 10 -64 19 -113 23 -125 2 -6
-16 -12 -43 -14 -25 -2 -54 -4 -63 -4 -9 -1 -15 -3 -13 -5 5 -6 -19 -31 -25
-27 -3 2 -6 -4 -7 -13 0 -17 -9 -73 -15 -103 -2 -10 -9 -23 -16 -31 -16 -19
-1 -140 24 -187 23 -47 90 -111 114 -111 13 0 26 -13 39 -39 24 -46 91 -98
137 -107 18 -3 50 0 70 6 35 12 39 11 57 -11 10 -13 38 -44 61 -69 22 -25 61
-70 86 -100 25 -30 53 -64 63 -75 17 -19 18 -49 12 -590 l-6 -570 23 -44 c27
-54 98 -105 172 -125 160 -45 340 -8 422 88 l34 40 1 325 c2 792 4 871 17 876
6 2 12 -1 12 -8 1 -13 40 30 69 74 9 15 39 51 66 81 28 30 64 71 82 91 32 35
33 36 64 20 19 -10 44 -13 66 -10 44 7 117 62 136 103 9 19 33 40 63 55 35 18
56 38 77 74 36 61 47 136 23 160 -22 23 -31 65 -18 86 12 18 9 22 -75 112 -10
10 -29 20 -43 23 -62 12 -73 19 -77 48 -2 15 3 39 13 53 9 14 18 42 19 62 2
20 11 56 20 81 10 25 19 83 21 130 2 47 5 102 7 123 1 21 -1 44 -5 50 -5 7 -8
3 -8 -12 l0 -24 -21 27 c-33 42 -94 28 -130 -31 -11 -18 -25 -33 -30 -33 -6 0
-7 -4 -4 -10 3 -5 1 -10 -5 -10 -7 0 -10 -6 -7 -14 3 -8 -2 -25 -12 -38 -24
-30 -34 -65 -22 -72 11 -7 -3 -74 -18 -89 -6 -6 -11 -30 -11 -53 0 -24 -5 -46
-11 -50 -6 -3 -9 -14 -6 -24 6 -23 -7 -45 -22 -36 -6 4 -11 16 -11 26 0 10 -4
21 -9 24 -11 7 -61 148 -61 173 0 27 -54 80 -97 94 -21 6 -41 17 -45 22 -4 6
-28 12 -55 14 -26 1 -61 4 -78 7 -151 22 -220 28 -286 22 -81 -7 -170 -29
-205 -51 -12 -8 -32 -16 -45 -18 -29 -4 -127 -67 -151 -96 -10 -12 -25 -21
-34 -21 -36 0 -47 -28 -46 -123 l0 -92 -13 54 c-8 30 -12 58 -9 63 6 9 -35
149 -47 162 -4 5 -4 17 1 27 8 13 6 19 -8 23 -9 3 -28 29 -42 58 -20 42 -89
129 -102 128 -2 0 -14 -9 -28 -20z m1256 -870 c8 0 14 -9 14 -21 0 -11 7 -27
15 -35 17 -17 21 -84 5 -84 -5 0 -10 -5 -10 -11 0 -13 -29 -79 -44 -98 -5 -7
-11 -19 -12 -27 -3 -22 -66 -154 -74 -154 -4 0 -7 21 -7 48 0 42 -8 103 -20
157 -11 48 -12 76 -4 98 5 13 5 30 0 38 -12 23 14 55 51 62 17 4 33 14 37 22
3 9 12 14 20 11 8 -3 21 -6 29 -6z m-798 -36 c17 -4 33 -13 33 -20 3 -35 6
-51 14 -77 4 -16 3 -38 -2 -50 -6 -13 -7 -60 -3 -112 10 -142 3 -151 -48 -53
-24 46 -60 114 -81 151 -41 75 -45 108 -18 149 19 28 18 28 105 12z"/>
</g>
</svg>
